<svg width="2416" height="1174" viewBox="0 0 2416 1174" fill="none" xmlns="http://www.w3.org/2000/svg">
<g clip-path="url(#clip0_16_4286)">
<rect width="2416" height="1174" fill="white"/>
<path fill-rule="evenodd" clip-rule="evenodd" d="M1329.44 60.6667C1329.44 71.037 1324.26 78.4444 1314.63 78.4444C1305 78.4444 1299.81 71.037 1299.81 60.6667C1299.81 50.2963 1305 42.8889 1314.63 42.8889C1324.26 42.8889 1329.44 50.2963 1329.44 60.6667ZM1339.81 60.6667C1339.81 45.1111 1330.19 34 1314.63 34C1299.07 34 1289.44 45.1111 1289.44 60.6667C1289.44 76.2222 1299.07 87.3333 1314.63 87.3333C1330.19 87.3333 1339.81 76.2222 1339.81 60.6667ZM1282.78 42.8889V35.4815L1282.04 34.7408H1248.7L1247.96 35.4815V85.8519L1248.7 86.5926H1257.59L1258.33 85.8519V65.8519L1259.07 65.1111H1280.56L1281.3 64.3704V56.963L1280.56 56.2222H1259.07L1258.33 55.4815V44.3704L1259.07 43.6297H1282.04L1282.78 42.8889ZM1374.63 34.7408C1385 34.7408 1392.41 39.9259 1392.41 50.2963C1392.41 58.4445 1387.22 63.6297 1381.3 65.1111V65.8519L1390.93 78.4445V85.8519L1390.19 86.5926H1385.74L1384.26 85.8519L1369.44 66.5926L1367.96 65.8519H1360.56L1359.81 66.5926V85.8519L1359.07 86.5926H1350.19L1349.44 85.8519V35.4815L1350.19 34.7408H1374.63ZM1374.63 56.963C1379.07 56.963 1382.04 55.4815 1382.04 50.2963C1382.04 45.1111 1379.07 43.6297 1374.63 43.6297H1360.56L1359.81 44.3704V56.2222L1360.56 56.963H1374.63ZM1439.07 60.6667C1439.07 71.037 1433.89 78.4444 1424.26 78.4444C1414.63 78.4444 1409.44 71.037 1409.44 60.6667C1409.44 50.2963 1414.63 42.8889 1424.26 42.8889C1433.89 42.8889 1439.07 50.2963 1439.07 60.6667ZM1449.44 60.6667C1449.44 45.1111 1439.81 34 1424.26 34C1408.7 34 1399.07 45.1111 1399.07 60.6667C1399.07 76.2222 1408.7 87.3333 1424.26 87.3333C1439.81 87.3333 1449.44 76.2222 1449.44 60.6667ZM1265 108.815C1283.52 108.815 1290.19 118.445 1290.19 134.741C1290.19 151.037 1283.52 160.667 1265 160.667H1248.7L1247.96 159.926V109.556L1248.7 108.815H1265ZM1265.74 151.778C1276.11 151.778 1279.81 146.593 1279.81 134.741C1279.81 122.889 1276.11 117.704 1265.74 117.704H1259.07L1258.33 118.445V151.037L1259.07 151.778H1265.74ZM1339.07 159.926V152.519L1322.04 109.556L1321.3 108.815H1311.67L1310.93 109.556L1293.89 152.519V159.926L1294.63 160.667H1301.3L1302.04 159.926L1305.74 150.296L1307.22 149.556H1325.74L1327.22 150.296L1330.93 159.926L1331.67 160.667H1338.33L1339.07 159.926ZM1323.52 139.926L1322.78 140.667H1310.18L1309.44 139.926L1316.11 122.148H1316.85L1323.52 139.926ZM1390.19 133.259V159.926L1389.44 160.667H1382.78L1382.04 159.926L1381.3 156.222H1380.56C1379.07 157.704 1375.37 161.408 1367.22 161.408C1352.41 161.408 1342.78 150.296 1342.78 134.741C1342.78 119.185 1352.41 108.074 1367.96 108.074C1382.78 108.074 1388.7 116.222 1390.19 123.63L1389.44 124.371H1380.56L1379.81 123.63C1378.33 120.667 1376.11 116.963 1367.96 116.963C1358.33 116.963 1353.15 124.371 1353.15 134.741C1353.15 145.111 1358.33 152.519 1367.96 152.519C1376.11 152.519 1379.81 148.074 1379.81 142.148L1379.07 141.408H1366.48L1365.74 140.667V133.259L1366.48 132.519H1389.44L1390.19 133.259Z" fill="#C4C5C5"/>
<path fill-rule="evenodd" clip-rule="evenodd" d="M1388.7 208.815C1388.7 219.185 1383.52 226.592 1373.89 226.592C1364.26 226.592 1359.07 219.185 1359.07 208.815C1359.07 198.444 1364.26 191.037 1373.89 191.037C1383.52 191.037 1388.7 198.444 1388.7 208.815ZM1399.07 208.815C1399.07 193.259 1389.44 182.148 1373.89 182.148C1358.33 182.148 1348.7 193.259 1348.7 208.815C1348.7 224.37 1358.33 235.481 1373.89 235.481C1389.44 235.481 1399.07 224.37 1399.07 208.815ZM1273.15 182.889C1283.52 182.889 1290.93 188.074 1290.93 198.444C1290.93 208.815 1283.52 214 1273.15 214H1259.07L1258.33 214.741V234L1257.59 234.741H1248.7L1247.96 234V183.629L1248.7 182.889H1273.15ZM1273.15 205.111C1277.59 205.111 1280.56 203.629 1280.56 198.444C1280.56 193.259 1277.59 191.778 1273.15 191.778H1259.07L1258.33 192.518V204.37L1259.07 205.111H1273.15ZM1324.26 182.889C1334.63 182.889 1342.04 188.074 1342.04 198.444C1342.04 206.592 1336.85 211.778 1330.93 213.259V214L1340.56 226.592V234L1339.81 234.741H1335.37L1333.89 234L1319.07 214.741L1317.59 214H1310.19L1309.44 214.741V234L1308.7 234.741H1299.81L1299.07 234V183.629L1299.81 182.889H1324.26ZM1324.26 205.111C1328.7 205.111 1331.67 203.629 1331.67 198.444C1331.67 193.259 1328.7 191.778 1324.26 191.778H1310.19L1309.44 192.518V204.37L1310.19 205.111H1324.26ZM1433.89 182.889C1444.26 182.889 1451.67 188.074 1451.67 198.444C1451.67 208.815 1444.26 214 1433.89 214H1419.81L1419.07 214.741V234L1418.33 234.741H1409.44L1408.7 234V183.629L1409.44 182.889H1433.89ZM1433.89 205.111C1438.33 205.111 1441.3 203.629 1441.3 198.444C1441.3 193.259 1438.33 191.778 1433.89 191.778H1419.81L1419.07 192.518V204.37L1419.81 205.111H1433.89ZM1496.85 208.815C1496.85 219.185 1491.67 226.592 1482.04 226.592C1472.41 226.592 1467.22 219.185 1467.22 208.815C1467.22 198.444 1472.41 191.037 1482.04 191.037C1491.67 191.037 1496.85 198.444 1496.85 208.815ZM1507.22 208.815C1507.22 193.259 1497.59 182.148 1482.04 182.148C1466.48 182.148 1456.85 193.259 1456.85 208.815C1456.85 224.37 1466.48 235.481 1482.04 235.481C1497.59 235.481 1507.22 224.37 1507.22 208.815ZM1538.33 203.629C1548.7 205.111 1556.85 209.555 1556.85 219.926C1556.85 228.074 1550.93 235.481 1535.37 235.481C1520.56 235.481 1513.89 228.074 1513.89 218.444L1514.63 217.704H1523.52L1524.26 218.444C1524.26 223.629 1527.22 226.592 1536.11 226.592C1542.78 226.592 1546.48 224.37 1546.48 219.926C1546.48 214.741 1543.52 213.259 1533.15 211.778C1522.78 210.296 1514.63 206.592 1514.63 196.222C1514.63 188.815 1520.56 182.148 1534.63 182.148C1548.7 182.148 1554.63 188.815 1554.63 197.704L1553.89 198.444H1545L1544.26 197.704C1544.26 193.259 1542.04 191.037 1533.89 191.037C1527.22 191.037 1525 193.259 1525 196.222C1525 200.666 1527.96 202.148 1538.33 203.629ZM1604.26 191.037V183.629L1603.52 182.889H1562.04L1561.3 183.629V191.037L1562.04 191.778H1576.85L1577.59 192.518V234L1578.33 234.741H1587.22L1587.96 234V192.518L1588.7 191.778H1603.52L1604.26 191.037ZM1648.7 226.592V234L1647.96 234.741H1641.3L1640.56 234L1636.85 224.37L1635.37 223.629H1616.85L1615.37 224.37L1611.67 234L1610.93 234.741H1604.26L1603.52 234V226.592L1620.56 183.629L1621.3 182.889H1630.93L1631.67 183.629L1648.7 226.592ZM1632.41 214.741L1633.15 214L1626.48 196.222H1625.74L1619.07 214L1619.81 214.741H1632.41ZM1696.11 219.926C1696.11 209.555 1687.96 205.111 1677.59 203.629C1667.22 202.148 1664.26 200.666 1664.26 196.222C1664.26 193.259 1666.48 191.037 1673.15 191.037C1681.3 191.037 1683.52 193.259 1683.52 197.704L1684.26 198.444H1693.15L1693.89 197.704C1693.89 188.815 1687.96 182.148 1673.89 182.148C1659.81 182.148 1653.89 188.815 1653.89 196.222C1653.89 206.592 1662.04 210.296 1672.41 211.778C1682.78 213.259 1685.74 214.741 1685.74 219.926C1685.74 224.37 1682.04 226.592 1675.37 226.592C1666.48 226.592 1663.52 223.629 1663.52 218.444L1662.78 217.704H1653.89L1653.15 218.444C1653.15 228.074 1659.81 235.481 1674.63 235.481C1690.18 235.481 1696.11 228.074 1696.11 219.926ZM1265 256.963C1283.52 256.963 1290.19 266.593 1290.19 282.889C1290.19 299.185 1283.52 308.815 1265 308.815H1248.7L1247.96 308.074V257.704L1248.7 256.963H1265ZM1265.74 299.926C1276.11 299.926 1279.81 294.741 1279.81 282.889C1279.81 271.037 1276.11 265.852 1265.74 265.852H1259.07L1258.33 266.593V299.185L1259.07 299.926H1265.74ZM1336.11 308.074V300.667L1335.37 299.926H1310.93L1310.19 299.185V287.333L1310.93 286.593H1333.89L1334.63 285.852V278.444L1333.89 277.704H1310.93L1310.19 276.963V266.593L1310.93 265.852H1335.37L1336.11 265.111V257.704L1335.37 256.963H1300.56L1299.81 257.704V308.074L1300.56 308.815H1335.37L1336.11 308.074ZM1407.22 300.667V308.074L1406.48 308.815H1399.81L1399.07 308.074L1395.37 298.444L1393.89 297.704H1375.37L1373.89 298.444L1370.19 308.074L1369.44 308.815H1362.78L1362.04 308.074V300.667L1379.07 257.704L1379.81 256.963H1389.44L1390.19 257.704L1407.22 300.667ZM1390.93 288.815L1391.67 288.074L1385 270.296H1384.26L1377.59 288.074L1378.33 288.815H1390.93ZM1452.41 265.111V257.704L1451.67 256.963H1445L1444.26 257.704L1430.93 294H1430.19L1416.85 257.704L1416.11 256.963H1409.44L1408.7 257.704V265.111L1425 308.074L1425.74 308.815H1435.37L1436.11 308.074L1452.41 265.111ZM1499.07 300.667V308.074L1498.33 308.815H1491.67L1490.93 308.074L1487.22 298.444L1485.74 297.704H1467.22L1465.74 298.444L1462.04 308.074L1461.3 308.815H1454.63L1453.89 308.074V300.667L1470.93 257.704L1471.67 256.963H1481.3L1482.04 257.704L1499.07 300.667ZM1482.78 288.815L1483.52 288.074L1476.85 270.296H1476.11L1469.44 288.074L1470.18 288.815H1482.78ZM1507.22 257.704V308.074L1507.96 308.815H1516.85L1517.59 308.074V274H1518.33L1538.33 308.074L1539.81 308.815H1550.19L1550.93 308.074V257.704L1550.19 256.963H1541.3L1540.56 257.704V291.778H1539.81L1519.81 257.704L1518.33 256.963H1507.96L1507.22 257.704ZM1570.93 282.889C1570.93 293.259 1575.37 300.667 1585.74 300.667C1591.67 300.667 1595.37 298.444 1596.85 293.259L1597.59 292.518H1606.48L1607.22 293.259C1605.74 303.63 1597.59 309.556 1585.74 309.556C1569.44 309.556 1560.56 298.444 1560.56 282.889C1560.56 267.333 1569.44 256.222 1585.74 256.222C1597.59 256.222 1605.74 262.148 1607.22 271.778L1606.48 272.518H1597.59L1596.85 271.778C1595.37 267.333 1591.67 265.111 1585.74 265.111C1575.37 265.111 1570.93 272.518 1570.93 282.889ZM1653.15 308.074V300.667L1652.41 299.926H1627.96L1627.22 299.185V287.333L1627.96 286.593H1650.93L1651.67 285.852V278.444L1650.93 277.704H1627.96L1627.22 276.963V266.593L1627.96 265.852H1652.41L1653.15 265.111V257.704L1652.41 256.963H1617.59L1616.85 257.704V308.074L1617.59 308.815H1652.41L1653.15 308.074ZM1273.15 331.037C1283.52 331.037 1290.93 336.222 1290.93 346.593C1290.93 356.963 1283.52 362.148 1273.15 362.148H1259.07L1258.33 362.889V382.148L1257.59 382.889H1248.7L1247.96 382.148V331.778L1248.7 331.037H1273.15ZM1273.15 353.259C1277.59 353.259 1280.56 351.778 1280.56 346.593C1280.56 341.408 1277.59 339.926 1273.15 339.926H1259.07L1258.33 340.667V352.519L1259.07 353.259H1273.15ZM1336.11 382.148V374.741L1319.07 331.778L1318.33 331.037H1308.7L1307.96 331.778L1290.93 374.741V382.148L1291.67 382.889H1298.33L1299.07 382.148L1302.78 372.519L1304.26 371.778H1322.78L1324.26 372.519L1327.96 382.148L1328.7 382.889H1335.37L1336.11 382.148ZM1320.56 362.148L1319.81 362.889H1307.22L1306.48 362.148L1313.15 344.37H1313.89L1320.56 362.148ZM1369.44 331.037C1379.81 331.037 1387.22 336.222 1387.22 346.593C1387.22 354.741 1382.04 359.926 1376.11 361.408V362.148L1385.74 374.741V382.148L1385 382.889H1380.56L1379.07 382.148L1364.26 362.889L1362.78 362.148H1355.37L1354.63 362.889V382.148L1353.89 382.889H1345L1344.26 382.148V331.778L1345 331.037H1369.44ZM1369.44 353.259C1373.89 353.259 1376.85 351.778 1376.85 346.593C1376.85 341.408 1373.89 339.926 1369.44 339.926H1355.37L1354.63 340.667V352.519L1355.37 353.259H1369.44ZM1437.59 382.148V374.741L1420.56 331.778L1419.81 331.037H1410.19L1409.44 331.778L1392.41 374.741V382.148L1393.15 382.889H1399.81L1400.56 382.148L1404.26 372.519L1405.74 371.778H1424.26L1425.74 372.519L1429.44 382.148L1430.19 382.889H1436.85L1437.59 382.148ZM1422.04 362.148L1421.3 362.889H1408.7L1407.96 362.148L1414.63 344.37H1415.37L1422.04 362.148ZM1270.19 448.815C1279.81 448.815 1285 441.408 1285 431.037C1285 420.667 1279.81 413.259 1270.19 413.259C1260.56 413.259 1255.37 420.667 1255.37 431.037C1255.37 441.408 1260.56 448.815 1270.19 448.815ZM1270.19 404.371C1285.74 404.371 1295.37 415.482 1295.37 431.037C1295.37 446.593 1285.74 457.704 1270.19 457.704C1254.63 457.704 1245 446.593 1245 431.037C1245 415.482 1254.63 404.371 1270.19 404.371ZM1365.74 431.037C1365.74 414.741 1359.07 405.111 1340.56 405.111H1324.26L1323.52 405.852V456.222L1324.26 456.963H1340.56C1359.07 456.963 1365.74 447.334 1365.74 431.037ZM1355.37 431.037C1355.37 442.889 1351.67 448.074 1341.3 448.074H1334.63L1333.89 447.334V414.741L1334.63 414H1341.3C1351.67 414 1355.37 419.185 1355.37 431.037ZM1411.67 448.815V456.222L1410.93 456.963H1376.11L1375.37 456.222V405.852L1376.11 405.111H1410.93L1411.67 405.852V413.259L1410.93 414H1386.48L1385.74 414.741V425.111L1386.48 425.852H1409.44L1410.18 426.593V434L1409.44 434.741H1386.48L1385.74 435.482V447.334L1386.48 448.074H1410.93L1411.67 448.815ZM1462.78 442.148C1462.78 431.778 1454.63 427.334 1444.26 425.852C1433.89 424.371 1430.93 422.889 1430.93 418.445C1430.93 415.482 1433.15 413.259 1439.81 413.259C1447.96 413.259 1450.19 415.482 1450.19 419.926L1450.93 420.667H1459.81L1460.56 419.926C1460.56 411.037 1454.63 404.371 1440.56 404.371C1426.48 404.371 1420.56 411.037 1420.56 418.445C1420.56 428.815 1428.7 432.519 1439.07 434C1449.44 435.482 1452.41 436.963 1452.41 442.148C1452.41 446.593 1448.7 448.815 1442.04 448.815C1433.15 448.815 1430.19 445.852 1430.19 440.667L1429.44 439.926H1420.56L1419.81 440.667C1419.81 450.297 1426.48 457.704 1441.3 457.704C1456.85 457.704 1462.78 450.297 1462.78 442.148ZM1508.7 448.815V456.222L1507.96 456.963H1473.15L1472.41 456.222V405.852L1473.15 405.111H1507.96L1508.7 405.852V413.259L1507.96 414H1483.52L1482.78 414.741V425.111L1483.52 425.852H1506.48L1507.22 426.593V434L1506.48 434.741H1483.52L1482.78 435.482V447.334L1483.52 448.074H1507.96L1508.7 448.815ZM1519.81 405.852V456.222L1520.56 456.963H1529.44L1530.19 456.222V422.148H1530.93L1550.93 456.222L1552.41 456.963H1562.78L1563.52 456.222V405.852L1562.78 405.111H1553.89L1553.15 405.852V439.926H1552.41L1532.41 405.852L1530.93 405.111H1520.56L1519.81 405.852ZM1546.48 402.148C1550.93 402.148 1554.63 399.185 1554.63 393.259L1553.89 392.519H1550.19L1549.44 393.259C1549.44 395.482 1548.7 396.222 1547.22 396.222C1546 396.222 1545.02 395.333 1543.88 394.291C1542.27 392.817 1540.32 391.037 1536.85 391.037C1532.41 391.037 1528.7 394 1528.7 399.926L1529.44 400.667H1533.15L1533.89 399.926C1533.89 397.704 1534.63 396.963 1536.11 396.963C1537.34 396.963 1538.31 397.853 1539.45 398.895C1541.06 400.369 1543.01 402.148 1546.48 402.148ZM1598.33 448.815C1607.96 448.815 1613.15 441.408 1613.15 431.037C1613.15 420.667 1607.96 413.259 1598.33 413.259C1588.7 413.259 1583.52 420.667 1583.52 431.037C1583.52 441.408 1588.7 448.815 1598.33 448.815ZM1598.33 404.371C1613.89 404.371 1623.52 415.482 1623.52 431.037C1623.52 446.593 1613.89 457.704 1598.33 457.704C1582.78 457.704 1573.15 446.593 1573.15 431.037C1573.15 415.482 1582.78 404.371 1598.33 404.371Z" fill="black"/>
<path fill-rule="evenodd" clip-rule="evenodd" d="M2037.26 98.3333C2026.15 98.3333 2018 90.9259 2018 71.6667C2018 52.4074 2026.15 45 2037.26 45C2048.37 45 2056.52 52.4074 2056.52 71.6667C2056.52 90.9259 2048.37 98.3333 2037.26 98.3333ZM2037.26 53.8889C2031.33 53.8889 2028.37 58.3333 2028.37 71.6667C2028.37 85 2031.33 89.4444 2037.26 89.4444C2043.19 89.4444 2046.15 85 2046.15 71.6667C2046.15 58.3333 2043.19 53.8889 2037.26 53.8889ZM2074.3 85.7407C2075.04 87.963 2076.52 89.4444 2080.22 89.4444C2087.63 89.4444 2088.37 81.2963 2088.37 77.5926H2087.63C2087.63 77.5926 2084.67 80.5556 2078.74 80.5556C2069.85 80.5556 2062.44 73.1482 2062.44 62.7778C2062.44 51.6667 2069.85 45 2080.96 45C2093.56 45 2099.48 54.6296 2099.48 70.1852C2099.48 88.7037 2094.3 98.3333 2080.22 98.3333C2069.85 98.3333 2064.67 93.1482 2063.93 85.7407L2064.67 85H2073.56L2074.3 85.7407ZM2080.22 53.8889C2075.78 53.8889 2072.82 56.8519 2072.82 62.7778C2072.82 68.7037 2075.78 71.6667 2080.22 71.6667C2086.15 71.6667 2088.37 67.963 2088.37 62.7778C2088.37 56.1111 2084.67 53.8889 2080.22 53.8889ZM2136.52 53.8889V46.4815L2135.78 45.7408H2130.59L2129.85 46.4815L2104.67 89.4445V96.8519L2105.41 97.5926H2110.59L2111.33 96.8519L2136.52 53.8889ZM2160.22 98.3333C2149.11 98.3333 2140.96 90.9259 2140.96 71.6667C2140.96 52.4074 2149.11 45 2160.22 45C2171.33 45 2179.48 52.4074 2179.48 71.6667C2179.48 90.9259 2171.33 98.3333 2160.22 98.3333ZM2160.22 53.8889C2154.3 53.8889 2151.33 58.3333 2151.33 71.6667C2151.33 85 2154.3 89.4444 2160.22 89.4444C2166.15 89.4444 2169.11 85 2169.11 71.6667C2169.11 58.3333 2166.15 53.8889 2160.22 53.8889ZM2220.96 96.8519V89.4445L2220.22 88.7037H2198V87.963L2206.89 80.5556C2215.78 73.1482 2219.48 68.7037 2219.48 60.5556C2219.48 52.4074 2213.56 45 2202.44 45C2189.11 45 2184.67 53.1482 2184.67 61.2963L2185.41 62.0371H2194.3L2195.04 61.2963C2195.04 56.8519 2196.52 53.8889 2202.44 53.8889C2206.89 53.8889 2209.11 56.8519 2209.11 61.2963C2209.11 65.7408 2207.63 68.7037 2198.74 76.1111L2185.41 87.2222L2184.67 88.7037V96.8519L2185.41 97.5926H2220.22L2220.96 96.8519ZM2258.74 46.4815V53.8889L2233.56 96.8519L2232.81 97.5926H2227.63L2226.89 96.8519V89.4445L2252.07 46.4815L2252.81 45.7408H2258L2258.74 46.4815ZM2298.74 96.8519V89.4445L2298 88.7037H2275.78V87.963L2284.67 80.5556C2293.56 73.1482 2297.26 68.7037 2297.26 60.5556C2297.26 52.4074 2291.33 45 2280.22 45C2266.89 45 2262.44 53.1482 2262.44 61.2963L2263.19 62.0371H2272.07L2272.81 61.2963C2272.81 56.8519 2274.3 53.8889 2280.22 53.8889C2284.67 53.8889 2286.89 56.8519 2286.89 61.2963C2286.89 65.7408 2285.41 68.7037 2276.52 76.1111L2263.19 87.2222L2262.44 88.7037V96.8519L2263.19 97.5926H2298L2298.74 96.8519ZM2323.19 98.3333C2312.07 98.3333 2303.93 90.9259 2303.93 71.6667C2303.93 52.4074 2312.07 45 2323.19 45C2334.3 45 2342.45 52.4074 2342.45 71.6667C2342.45 90.9259 2334.3 98.3333 2323.19 98.3333ZM2323.19 53.8889C2317.26 53.8889 2314.3 58.3333 2314.3 71.6667C2314.3 85 2317.26 89.4444 2323.19 89.4444C2329.11 89.4444 2332.07 85 2332.07 71.6667C2332.07 58.3333 2329.11 53.8889 2323.19 53.8889ZM2369.11 97.5926L2369.85 96.8519V46.4815L2369.11 45.7408H2360.22L2358.74 46.4815L2348.37 56.8519V64.2593L2349.11 65H2352.82L2358.74 59.0741H2359.48V96.8519L2360.22 97.5926H2369.11ZM2401.7 65C2408.37 65 2415.04 70.9259 2415.04 80.5556C2415.04 90.1852 2408.37 98.3333 2395.78 98.3333C2383.93 98.3333 2378 90.9259 2378 83.5185L2378.74 82.7778H2387.63L2388.37 83.5185C2388.37 86.4815 2390.59 89.4444 2395.78 89.4444C2401.7 89.4444 2404.67 85.7407 2404.67 80.5556C2404.67 74.6296 2401.7 71.6667 2397.26 71.6667C2394.3 71.6667 2392.82 73.1481 2392.82 73.1481H2389.11L2388.37 72.4074V65.7407L2398.74 55.3704V54.6296H2380.96L2380.22 53.8889V46.4815L2380.96 45.7407H2411.33L2412.08 46.4815V53.8889L2411.33 55.3704L2401.7 64.2593V65ZM2043.56 163.519C2033.19 163.519 2028.74 156.111 2028.74 145.741C2028.74 135.371 2033.19 127.963 2043.56 127.963C2049.48 127.963 2053.19 130.185 2054.67 134.63L2055.41 135.371H2064.3L2065.04 134.63C2063.56 125 2055.41 119.074 2043.56 119.074C2027.26 119.074 2018.37 130.185 2018.37 145.741C2018.37 161.296 2027.26 172.408 2043.56 172.408C2055.41 172.408 2063.56 166.482 2065.04 156.111L2064.3 155.371H2055.41L2054.67 156.111C2053.19 161.296 2049.48 163.519 2043.56 163.519ZM2119.11 144.259V170.926L2118.37 171.667H2111.7L2110.96 170.926L2110.22 167.222H2109.48C2108 168.704 2104.3 172.408 2096.15 172.408C2081.33 172.408 2071.7 161.296 2071.7 145.741C2071.7 130.185 2081.33 119.074 2096.89 119.074C2111.7 119.074 2117.63 127.222 2119.11 134.63L2118.37 135.371H2109.48L2108.74 134.63C2107.26 131.667 2105.04 127.963 2096.89 127.963C2087.26 127.963 2082.07 135.371 2082.07 145.741C2082.07 156.111 2087.26 163.519 2096.89 163.519C2105.04 163.519 2108.74 159.074 2108.74 153.148L2108 152.408H2095.41L2094.67 151.667V144.259L2095.41 143.519H2118.37L2119.11 144.259ZM2170.96 170.926V163.519L2153.93 120.556L2153.19 119.815H2143.56L2142.82 120.556L2125.78 163.519V170.926L2126.52 171.667H2133.19L2133.93 170.926L2137.63 161.296L2139.11 160.556H2157.63L2159.11 161.296L2162.82 170.926L2163.56 171.667H2170.22L2170.96 170.926ZM2155.41 150.926L2154.67 151.667H2142.07L2141.33 150.926L2148 133.148H2148.74L2155.41 150.926ZM2185.04 145.741C2185.04 156.111 2189.48 163.519 2199.85 163.519C2205.78 163.519 2209.48 161.296 2210.96 156.111L2211.7 155.371H2220.59L2221.33 156.111C2219.85 166.482 2211.7 172.408 2199.85 172.408C2183.56 172.408 2174.67 161.296 2174.67 145.741C2174.67 130.185 2183.56 119.074 2199.85 119.074C2211.7 119.074 2219.85 125 2221.33 134.63L2220.59 135.371H2211.7L2210.96 134.63C2209.48 130.185 2205.78 127.963 2199.85 127.963C2189.48 127.963 2185.04 135.371 2185.04 145.741Z" fill="black"/>
<path d="M955.75 587.136C955.75 218.521 804.954 0.702403 386.073 0.702403H17.4577L0.702148 17.4579V1156.81L17.4577 1173.57H386.073C804.954 1173.57 955.75 955.751 955.75 587.136ZM721.176 587.136C721.176 855.221 637.402 972.506 402.828 972.506H252.032L235.276 955.751V218.521L252.032 201.765H402.828C637.402 201.765 721.176 319.051 721.176 587.136Z" fill="#5BC0D4"/>
<path d="M851.789 184.997V17.4451L835.034 0.689456H81.0485L64.293 17.4451V1156.8L81.0485 1173.55H282.111L298.867 1156.8V704.408L315.623 687.652H801.523L818.278 670.897V503.345L801.523 486.589H315.623L298.867 469.834V218.508L315.623 201.752H835.034L851.789 184.997Z" fill="#E62915"/>
<path fill-rule="evenodd" clip-rule="evenodd" d="M851.789 184.95V184.997L835.034 201.753H315.623L315.61 201.766H252.032L235.276 218.521V955.751L252.032 972.506H298.867V1156.8L282.111 1173.55H81.0485L64.293 1156.8V17.4453L81.0355 0.702637H386.073C615.006 0.702637 763.863 65.7654 851.789 184.95ZM716.42 687.653H801.523L818.278 670.897V503.345L801.523 486.59H716.417C719.645 517.404 721.176 550.892 721.176 587.136C721.176 623.369 719.646 656.847 716.42 687.653Z" fill="#1A1A18"/>
</g>
<defs>
<clipPath id="clip0_16_4286">
<rect width="2416" height="1174" fill="white"/>
</clipPath>
</defs>
</svg>
